<?xml version="1.0" encoding="UTF-8" standalone="no" ?>
<!DOCTYPE svg PUBLIC "-//W3C//DTD SVG 1.1//EN" "http://www.w3.org/Graphics/SVG/1.1/DTD/svg11.dtd">
<svg xmlns="http://www.w3.org/2000/svg" xmlns:xlink="http://www.w3.org/1999/xlink" version="1.1" width="500" height="500" viewBox="0 0 500 500" xml:space="preserve">
<desc>Created with Fabric.js 5.3.0</desc>
<defs>
</defs>
<g transform="matrix(1.6242407469 0 0 1.6242407469 344.2091037106 243.8147226008)" id="ZFcSH1qv2lJZUoDUAgA9l"  >
<path style="stroke: none; stroke-width: 1; stroke-dasharray: none; stroke-linecap: butt; stroke-dashoffset: 0; stroke-linejoin: miter; stroke-miterlimit: 4; fill: rgb(17,17,17); fill-rule: nonzero; opacity: 1;" vector-effect="non-scaling-stroke"  transform=" translate(-373.436085931, -314.2269171091)" d="M 422.69 208.57 Q 420.18 209.11 417.71 209.92 C 352.76 231.24 308.84 288.62 287.57 351.29 Q 287.33 351.98 287.11 351.29 Q 277.15 319.78 282.25 287.2 C 296.05 199.13 394.22 175.52 467.75 171.01 Q 468.01 170.99 467.97 171.25 Q 463.14 199.65 455.73 227.49 C 442.24 278.15 420.91 327.08 371.49 352.24 Q 357.68 359.27 343.89 366.35 C 307.86 384.84 291.81 419.53 284.87 457.09 C 284.82377266653 457.30727522968 284.62522314485733 457.4611630109855 284.4040859470255 457.45111132017496 C 284.18294874919366 457.4410596293645 284.0064858024583 457.27012582676764 283.99 457.05 C 277.63 378.65 308.94 297.47 367.42 244.68 Q 392.21 222.3 422.76 208.78 Q 423.77 208.33 422.69 208.57 Z" stroke-linecap="round" />
</g>
<g transform="matrix(1.6242407469 0 0 1.6242407469 98.3336366861 329.46902981)" id="6hqe2y-2p2lZinrvvpHT3"  >
<path style="stroke: none; stroke-width: 1; stroke-dasharray: none; stroke-linecap: butt; stroke-dashoffset: 0; stroke-linejoin: miter; stroke-miterlimit: 4; fill: rgb(209,209,209); fill-rule: nonzero; opacity: 1;" vector-effect="non-scaling-stroke"  transform=" translate(-222.0573771471, -366.9618995131)" d="M 195.03 300.55 C 245.97 337.68 274.43 389.56 280.6 453.18 Q 281.19 459.33 281.23 463.78 Q 281.25 465.48 280.68 463.88 C 270.88 436.4 256.56 415.38 232.55 398.2 Q 212.25 383.68 206.7 379.8 C 184.3 364.15 170.43 343.5 166.09 316.48 Q 162.22 292.4 164.13 269.34 Q 164.18 268.77 164.7 269 Q 192.45 281.63 220.48 293.4 Q 233.6 298.91 238.62 301.81 C 273.96 322.22 284.89 361.07 276.73 399.63 C 276.71046753782986 399.75806896344926 276.60272566821067 399.8542144009342 276.47326790941054 399.8590995993795 C 276.34381015061047 399.8639847978248 276.22912875102685 399.77623269125314 276.2 399.65 C 263.31 357.19 235.94 319.6 195.23 300.21 C 195.13877961886337 300.1751297996867 195.0357148623146 300.21123714136445 194.98620028082485 300.295411929897 C 194.93668569933513 300.37958671842955 194.95520174770863 300.4872121806498 195.03 300.55 Z" stroke-linecap="round" />
</g>
</svg>