<?xml version="1.0" encoding="UTF-8" standalone="no" ?>
<!DOCTYPE svg PUBLIC "-//W3C//DTD SVG 1.1//EN" "http://www.w3.org/Graphics/SVG/1.1/DTD/svg11.dtd">
<svg xmlns="http://www.w3.org/2000/svg" xmlns:xlink="http://www.w3.org/1999/xlink" version="1.1" width="500" height="500" viewBox="0 0 500 500" xml:space="preserve">
<desc>Created with Fabric.js 5.3.0</desc>
<defs>
</defs>
<g transform="matrix(1 0 0 1 250.0000004564 250.0000018178)" id="_2jhDZgA4ySErhrlI-WeO"  >
<path style="stroke: rgb(210,3,57); stroke-width: 0; stroke-dasharray: none; stroke-linecap: butt; stroke-dashoffset: 0; stroke-linejoin: miter; stroke-miterlimit: 4; fill: rgb(0,0,0); fill-rule: nonzero; opacity: 1;" vector-effect="non-scaling-stroke"  transform=" translate(-248.4777, -248.47769)" d="M 248.4777 0 C 312.08975 0 370.14345000000003 23.9437 414.11202000000003 63.30433 C 322.57643 77.64154 225.19390000000004 117.8461 209.15584000000004 220.19912 C 204.39280000000005 250.62653 206.66224000000005 280.5543 215.96418000000003 309.98240999999996 C 216.16964000000002 310.62681999999995 216.38445000000002 310.62681999999995 216.60859000000002 309.98240999999996 C 246.40560000000002 222.18838999999997 307.93287000000004 141.80508999999995 398.92093 111.93802999999997 C 401.22773 111.18153999999997 403.55322 110.55113999999998 405.89738 110.04681999999997 L 405.89739 110.04682999999997 C 406.90603 109.82268999999997 406.93872 109.92074999999997 405.99544999999995 110.34101999999997 C 377.46390999999994 122.96773999999998 351.62208999999996 139.73176999999998 328.46997999999996 160.63311 C 246.54569999999995 234.5863 202.68370999999996 348.31087 211.59339999999997 458.14096 C 211.61648999999997 458.44933000000003 211.86369999999997 458.68879 212.17349 458.70287 C 212.48327999999998 458.71695 212.76143 458.50137 212.82619 458.19699 C 222.54838999999998 405.57941000000005 245.03274 356.98240000000004 295.50695 331.07987 C 308.38583 324.46765000000005 321.27406 317.87878 334.17162 311.31326 C 403.40380000000005 276.06677 433.28487 207.52103 452.18293 136.55174000000002 C 454.13298 129.22523 455.98737 121.87796000000003 457.7461 114.50993000000003 C 482.56076 153.17446 496.95541000000003 199.15527000000003 496.95541000000003 248.47770000000003 C 496.95541000000003 385.63738 385.6374 496.95539 248.47771000000003 496.95539 C 111.31802000000002 496.95539 0.000010000000031595846 385.63739000000004 0.000010000000031595846 248.47770000000003 C 0.000010000000031595846 111.31802000000002 111.31802000000003 0.000010000000031595846 248.47771000000003 0.000010000000031595846 z M 87.67823 239.13953 C 87.57344 239.05157 87.54751 238.9008 87.61687 238.78288 C 87.68624000000001 238.66496 87.83062000000001 238.61438 87.95841 238.66323 C 144.9888 265.82657 183.33127000000002 318.48617 201.38879 377.96813 C 201.4296 378.14497 201.59025 378.2679 201.77161 378.26106 C 201.95296000000002 378.25422 202.1039 378.11953 202.13126 377.94012 C 213.56255 323.92165 198.25078 269.49692 148.74319 240.90466999999998 C 144.05486 238.19626999999997 135.58411999999998 234.26909999999998 123.33097 229.12314999999998 C 97.15293 218.1308 71.10564 206.73686999999998 45.189099999999996 194.94133999999997 C 44.70346 194.72652999999997 44.43729 194.88529999999997 44.390589999999996 195.41763999999998 C 42.60677999999999 216.95404999999997 43.522029999999994 238.96675999999997 47.13634 261.45578 C 53.21622 299.30794000000003 72.64662 328.2364 104.02664 350.16039 C 109.20995 353.78404 121.28098 362.37619 140.23975000000002 375.93684 C 173.87522 400.0042 193.93602 429.45099000000005 207.66478 467.94756 C 208.19712 469.44185 208.45395000000002 469.39515 208.43527 467.80747 C 208.39792 463.65148000000005 208.10373 458.70166 207.55271 452.95799 C 198.90919 363.83311 159.03975 291.15473 87.67820999999999 239.13953999999998 z" stroke-linecap="round" />
</g>
</svg>